<svg width="15" height="15" viewBox="0 0 15 15" fill="none" xmlns="http://www.w3.org/2000/svg">
<path fill-rule="evenodd" clip-rule="evenodd" d="M9.01485 7.49953L14.6862 1.82878C15.1052 1.40983 15.1052 0.73249 14.6862 0.31348C14.2673 -0.10547 13.5899 -0.10547 13.1709 0.31348L7.49955 5.98483L1.8288 0.31348C1.40985 -0.10547 0.732513 -0.10547 0.313503 0.31348C-0.105507 0.73243 -0.105447 1.40977 0.313503 1.82878L5.98485 7.49953L0.313503 13.1709C-0.105447 13.5898 -0.105447 14.2672 0.313503 14.6862C0.522678 14.8948 0.796908 14.9996 1.07112 14.9996C1.34534 14.9996 1.61955 14.8948 1.82874 14.6862L7.49949 9.01483L13.1708 14.6862C13.38 14.8948 13.6542 14.9996 13.9285 14.9996C14.2027 14.9996 14.4769 14.8948 14.6861 14.6862C15.105 14.2672 15.105 13.5899 14.6861 13.1709L9.01473 7.49953"/>
</svg>
