<svg width="20" height="18" viewBox="0 0 20 18" fill="none" xmlns="http://www.w3.org/2000/svg">
<path d="M18.1733 3.57907H17.0152V1.1093V0.94186V0H3.00662V0.92093V1.08837V3.55814H1.84851C0.824035 3.55814 0 4.33256 0 5.29535V11.8674C0 12.8302 0.824035 13.6047 1.84851 13.6047H2.31621V18H13.7859L17.6834 14.3372V13.6256H18.151C19.1755 13.6256 19.9996 12.8512 19.9996 11.8884V5.31628C20.0218 4.35349 19.1978 3.57907 18.1733 3.57907ZM4.16472 1.1093H15.8348V3.57907H4.16472V1.1093ZM3.69702 16.7233V11.4488H16.3248V13.814L16.2803 13.8558H13.2068V16.7233H12.3383H3.69702ZM18.6633 11.8884C18.6633 12.1395 18.4406 12.3279 18.1956 12.3279H17.7279V10.1512H2.31621V12.3488H1.84851C1.58126 12.3488 1.38082 12.1395 1.38082 11.9093V5.31628C1.38082 5.06512 1.60353 4.87674 1.84851 4.87674H18.1733C18.4406 4.87674 18.641 5.08605 18.641 5.31628V11.8884H18.6633ZM14.6767 6.94884C14.6767 7.24186 14.4095 7.49302 14.0977 7.49302C13.7859 7.49302 13.5186 7.24186 13.5186 6.94884C13.5186 6.65581 13.7859 6.40465 14.0977 6.40465C14.4095 6.40465 14.6767 6.65581 14.6767 6.94884ZM17.0152 6.94884C17.0152 7.24186 16.748 7.49302 16.4362 7.49302C16.1244 7.49302 15.8571 7.24186 15.8571 6.94884C15.8571 6.65581 16.1244 6.40465 16.4362 6.40465C16.748 6.40465 17.0152 6.65581 17.0152 6.94884Z"/>
</svg>
